<?xml version="1.0" standalone="no"?><!DOCTYPE svg PUBLIC "-//W3C//DTD SVG 1.1//EN" "http://www.w3.org/Graphics/SVG/1.1/DTD/svg11.dtd"><svg t="1726990113172" class="icon" viewBox="0 0 1024 1024" version="1.1" xmlns="http://www.w3.org/2000/svg" p-id="4307" xmlns:xlink="http://www.w3.org/1999/xlink" width="200" height="200"><path d="M768 955.733333H256c-66.030933 0-102.4-36.369067-102.4-102.4V427.52a17.066667 17.066667 0 0 1 34.133333 0V853.333333c0 47.223467 21.0432 68.266667 68.266667 68.266667h110.933333V597.333333a17.066667 17.066667 0 0 1 17.066667-17.066666h257.706667a17.066667 17.066667 0 0 1 17.066666 17.066666v324.266667H768c47.223467 0 68.266667-21.0432 68.266667-68.266667l0.853333-402.807466-0.836267-24.132267-0.017066-0.6656V187.733333h-136.533334v67.413334a17.066667 17.066667 0 1 1-34.133333 0V170.666667a17.066667 17.066667 0 0 1 17.066667-17.066667h170.666666a17.066667 17.066667 0 0 1 17.066667 17.066667v250.6752c0.546133 1.672533 0.853333 3.464533 0.853333 5.3248v23.893333l-0.017066 0.6656L870.4 853.367467C870.4 919.364267 834.030933 955.733333 768 955.733333z m-366.933333-34.133333h223.573333V614.4H401.066667v307.2z" p-id="4308"></path><path d="M85.333333 546.986667a34.133333 34.133333 0 0 1-24.132266-58.2656l427.52-427.52a34.133333 34.133333 0 0 1 48.264533 0l340.48 340.48a4.727467 4.727467 0 0 1 0.4096 0.426666c0.1536 0.136533 0.3072 0.273067 0.426667 0.426667l85.333333 85.333333a34.133333 34.133333 0 1 1-48.264533 48.264534l-85.333334-85.333334a4.727467 4.727467 0 0 1-0.4096-0.426666 5.034667 5.034667 0 0 1-0.426666-0.426667L512.853333 133.614933 109.4656 536.9856c-6.656 6.656-15.394133 10.001067-24.132267 10.001067z" p-id="4309"></path></svg>