<?xml version="1.0" standalone="no"?><!DOCTYPE svg PUBLIC "-//W3C//DTD SVG 1.1//EN" "http://www.w3.org/Graphics/SVG/1.1/DTD/svg11.dtd"><svg t="1728138001820" class="icon" viewBox="0 0 1024 1024" version="1.1" xmlns="http://www.w3.org/2000/svg" p-id="2287" xmlns:xlink="http://www.w3.org/1999/xlink" width="200" height="200"><path d="M512.3 98.2c-229.2 0-415 185.8-415 415s185.8 415 415 415 415-185.8 415-415-185.8-415-415-415z m-65.5 563.3c0 18.2-14.8 33-33 33s-33-14.8-33-33V365.1c0-18.2 14.8-33 33-33s33 14.8 33 33v296.4z m197 0c0 18.2-14.8 33-33 33s-33-14.8-33-33V365.1c0-18.2 14.8-33 33-33s33 14.8 33 33v296.4z" fill="inherit" p-id="2288"></path></svg>