<?xml version="1.0" standalone="no"?><!DOCTYPE svg PUBLIC "-//W3C//DTD SVG 1.1//EN" "http://www.w3.org/Graphics/SVG/1.1/DTD/svg11.dtd"><svg t="1726990187477" class="icon" viewBox="0 0 1024 1024" version="1.1" xmlns="http://www.w3.org/2000/svg" p-id="5517" xmlns:xlink="http://www.w3.org/1999/xlink" width="200" height="200"><path d="M512 123.90242471c-214.34660121 0-388.09757529 173.75097409-388.09757529 388.09757529s173.75097409 388.09757529 388.09757529 388.09757529 388.09757529-173.75097409 388.09757529-388.09757529S726.34660121 123.90242471 512 123.90242471zM512 841.88293924c-182.19225119 0-329.88293924-147.69068805-329.88293924-329.88293924s147.69068805-329.88293924 329.88293924-329.88293924c13.15681804 0 26.06028603 0.98980355 38.80975777 2.48382411l0 255.58181357c-11.35231947-3.57049716-24.15891919-5.80221398-38.80975777-5.80221398-64.30745729 0-97.02439382 38.80975777-97.02439382 77.61951554s32.71693653 77.61951554 97.02439382 77.61951554c50.22044675 0 80.87953469-23.73170093 92.03687363-52.58753183 2.89117162-4.52180195 4.98751898-9.56645012 4.98751898-15.33016413L609.02439382 196.67103107c134.82571882 41.44882089 232.85854542 166.92045657 232.85854542 315.32896893C841.88293924 694.19225119 694.19225119 841.88293924 512 841.88293924zM437.40826707 250.94632122c-90.00013855 25.67280928-160.78913536 96.46180731-186.46194585 186.46194585l55.94442047 15.98962013c20.18107331-70.7119993 75.79514622-126.32607099 146.50714551-146.50714551L437.40826707 250.94632122zM717.10925831 570.6021128c-20.18107331 70.7119993-75.79514622 126.32607099-146.50714551 146.50714551l15.98962013 55.94442047c90.00013855-25.67280928 160.78913536-96.46180731 186.46194585-186.46194585L717.10925831 570.6021128z" fill="inherit" p-id="5518"></path></svg>