<?xml version="1.0" standalone="no"?><!DOCTYPE svg PUBLIC "-//W3C//DTD SVG 1.1//EN" "http://www.w3.org/Graphics/SVG/1.1/DTD/svg11.dtd"><svg t="1729240836152" class="icon" viewBox="0 0 1024 1024" version="1.1" xmlns="http://www.w3.org/2000/svg" p-id="2864" xmlns:xlink="http://www.w3.org/1999/xlink" width="200" height="200"><path d="M790.08 283.612c15.468-15.644 15.404-41.168-0.164-56.724L643.908 80.88c-15.564-15.556-28.236-10.284-28.164 11.716l0.212 71.344c0.072 22-17.884 40-39.884 40H420c-22 0-56.512 7.168-76.692 15.928l-256.488 247.78c-9.252 19.96 1.176 36.292 23.176 36.292h20c22 0 47.668-16.284 57.044-36.188l156.172-148.096C363.448 311.012 398 303.94 420 303.94h156.372c22 0 40.06 18 40.116 40l0.232 74.868c0.064 22 12.768 27.2 28.248 11.56l145.112-146.756zM906 503.94c-22 0-47.672 16.288-57.048 36.184l-156.172 148.092c-20.236 8.64-54.78 15.72-76.78 15.72h-126.56c-22 0-40.052-18-40.12-40l-0.212-71.344c-0.068-22-12.776-27.204-28.244-11.568l-145.12 146.752c-15.468 15.64-15.396 41.172 0.16 56.732l146.008 146.004c15.556 15.564 28.232 10.284 28.168-11.716l-0.22-74.88c-0.068-22 17.88-40 39.88-40H616c22 0 56.512-7.164 76.692-15.92l256.484-247.772c9.252-19.96-1.176-36.296-23.176-36.296l-20 0.012z" p-id="2865"></path></svg>