<?xml version="1.0" standalone="no"?><!DOCTYPE svg PUBLIC "-//W3C//DTD SVG 1.1//EN" "http://www.w3.org/Graphics/SVG/1.1/DTD/svg11.dtd"><svg t="1727686392329" class="icon" viewBox="0 0 1024 1024" version="1.1" xmlns="http://www.w3.org/2000/svg" p-id="7705" xmlns:xlink="http://www.w3.org/1999/xlink" width="200" height="200"><path d="M511.951 821.918c16.284 0 29.529 13.001 29.904 29.18l0.008 0.706v81.31c0 16.506-13.392 29.886-29.912 29.886-16.283 0-29.528-13-29.903-29.18l-0.008-0.706v-81.31c0-16.505 13.392-29.886 29.911-29.886z m-219.283-93.56c11.514 11.505 11.679 30.056 0.493 41.761l-0.493 0.505-57.545 57.495c-11.68 11.67-30.62 11.67-42.301 0-11.515-11.505-11.68-30.055-0.494-41.76l0.494-0.505 57.544-57.495c11.681-11.671 30.62-11.671 42.302 0z m484.965-0.492l0.505 0.493 57.545 57.495c11.681 11.67 11.681 30.593 0 42.265-11.515 11.504-30.08 11.669-41.797 0.493l-0.505-0.493-57.544-57.495c-11.682-11.671-11.682-30.594 0-42.265 11.514-11.505 30.08-11.669 41.796-0.493zM511.951 250.213c143.596 0 260.003 116.306 260.003 259.778 0 143.471-116.407 259.778-260.003 259.778-143.595 0-260.003-116.307-260.003-259.778 0-143.472 116.408-259.778 260.003-259.778z m0 59.772c-110.556 0-200.179 89.545-200.179 200.006 0 110.46 89.623 200.006 200.18 200.006 110.555 0 200.179-89.546 200.179-200.006s-89.624-200.006-200.18-200.006z m-336.694 167.07c16.505 0 29.886 13.391 29.886 29.911 0 16.284-13.001 29.529-29.18 29.904l-0.706 0.008h-81.31c-16.506 0-29.886-13.392-29.886-29.912 0-16.284 13-29.528 29.18-29.904l0.706-0.008h81.31z m747.796 0c16.506 0 29.886 13.391 29.886 29.911 0 16.284-13 29.529-29.18 29.904l-0.706 0.008h-81.31c-16.505 0-29.886-13.392-29.886-29.912 0-16.284 13.001-29.528 29.18-29.904l0.706-0.008h81.31zM234.618 187.618l0.505 0.493 57.545 57.495c11.681 11.671 11.681 30.594 0 42.265-11.515 11.505-30.08 11.67-41.797 0.493l-0.505-0.493-57.544-57.494c-11.682-11.672-11.682-30.594 0-42.265 11.514-11.505 30.08-11.67 41.796-0.494z m596.463 0.493c11.515 11.505 11.679 30.055 0.494 41.76l-0.494 0.506-57.544 57.494c-11.682 11.671-30.62 11.671-42.302 0-11.515-11.504-11.679-30.055-0.494-41.76l0.494-0.505 57.544-57.495c11.682-11.67 30.62-11.67 42.302 0zM511.951 64c16.284 0 29.529 13 29.904 29.18l0.008 0.706v81.31c0 16.505-13.392 29.886-29.912 29.886-16.283 0-29.528-13.001-29.903-29.18l-0.008-0.706v-81.31C482.04 77.38 495.432 64 511.95 64z" fill="inherit" p-id="7706"></path></svg>