<?xml version="1.0" standalone="no"?><!DOCTYPE svg PUBLIC "-//W3C//DTD SVG 1.1//EN" "http://www.w3.org/Graphics/SVG/1.1/DTD/svg11.dtd"><svg t="1728051451586" class="icon" viewBox="0 0 1024 1024" version="1.1" xmlns="http://www.w3.org/2000/svg" p-id="6906" xmlns:xlink="http://www.w3.org/1999/xlink" width="200" height="200"><path d="M832.073143 761.417143a55.588571 55.588571 0 0 1-74.605714 82.578286L524.507429 633.270857a73.142857 73.142857 0 0 0-98.157715 0l-232.96 210.651429a55.588571 55.588571 0 1 1-74.605714-82.432l307.565714-278.235429a73.142857 73.142857 0 0 1 98.157715 0l307.565714 278.235429z" fill="inherit" p-id="6907"></path><path d="M832.073143 395.702857a55.588571 55.588571 0 0 1-74.605714 82.578286L524.507429 267.556571a73.142857 73.142857 0 0 0-98.157715 0l-232.96 210.651429a55.588571 55.588571 0 0 1-74.605714-82.432l307.565714-278.235429a73.142857 73.142857 0 0 1 98.157715 0l307.565714 278.235429z" fill="inherit" p-id="6908"></path></svg>